<?xml version="1.0" encoding="utf-8"?>
<!-- Generator: Adobe Illustrator 21.1.0, SVG Export Plug-In . SVG Version: 6.00 Build 0)  -->
<svg version="1.1" id="B" xmlns="http://www.w3.org/2000/svg" xmlns:xlink="http://www.w3.org/1999/xlink" x="0px" y="0px"
	 viewBox="0 0 1672.5 1672.5" style="enable-background:new 0 0 1672.5 1672.5;" xml:space="preserve">
<style type="text/css">
	.st0{fill:#FF3300;}
</style>
<g>
	<path class="st0" d="M139.9,1207.7c0,34.1-27.7,62-61.8,62H61.9c-17.1,0-32.6-7-43.7-18.2C6.9,1240.3,0,1224.8,0,1207.8
		c0-34.1,27.8-61.8,62-61.8h16.2C112.2,1145.8,139.9,1173.6,139.9,1207.7z"/>
	<path class="st0" d="M305.3,712.5c0,34.1-27.6,62-61.8,62h-41.7c-36.1,0-64.9-30.9-61.7-67.5c2.8-32.4,32.2-56.3,64.9-56.3h38.5
		c17.1,0,32.6,6.8,43.9,18.1C298.5,680,305.3,695.3,305.3,712.5z"/>
	<g>
		<path class="st0" d="M1664.6,536.7c23.4-109.3-3.5-240.7-102.3-307.6c-125.5-85.1-299.9-73.2-444-73.2l-602.6-0.4h-0.4
			c-26.2,0-50.2,16.3-58.3,41.1c-14,43,17.7,82.7,58.7,82.7H630c35.4,0,66,28.9,64.6,64.3c-0.6,16.2-7.4,30.6-18.1,41.3
			c-11.2,11.3-26.6,18.2-43.7,18.2H339.9c-17,0-32.6,6.8-43.7,18c-11.1,11.3-18.1,26.7-18.1,43.9c0,34.1,27.7,62,61.8,62h255
			c35.2,0,66,28.9,64.6,64.3c-0.6,16.2-7.4,30.6-18,41.3c-11.3,11.3-26.7,18.2-43.9,18.2H445.3c-17,0-32.4,6.8-43.7,18.1
			c-10.8,10.7-17.5,25.1-18.1,41.4c-1.3,35.2,29.4,64.3,64.8,64.3H683c35.4,0,66.2,29,64.8,64.4c-0.6,16-7.5,30.5-18.1,41.2
			c-11.1,11.3-26.6,18.2-43.6,18.2H463.5c-17.1,0-32.7,6.8-43.9,18.1c-10.6,10.6-17.5,25.1-18.1,41.2c-1.3,35.5,29.5,64.5,65,64.5
			h73.7c34.3,0,62,27.7,62,61.8c0,17-6.8,32.4-18.1,43.7s-26.7,18.2-43.9,18.2H289.1c-17,0-32.6,6.8-43.7,18.1
			c-10.6,10.6-17.5,25.1-18.1,41.2c-1.3,35.5,29.5,64.5,65,64.5h295.8c35.4,0,66.2,28.9,64.8,64.4c-0.6,16-7.5,30.5-18.1,41.2
			c-11.1,11.3-26.7,18.2-43.6,18.2h-34.4c-17.1,0-32.6,6.8-43.9,18.1c-10.6,10.7-17.4,25.1-18,41.3c-1.2,35.4,29.5,64.4,64.9,64.4
			h607.3c486.6-46.2,451.8-456.1,451.8-456.1c11.5-181.5-185.4-262.7-185.4-262.7c99.5-31.3,155.9-92.4,187.7-147.9
			C1641.1,616,1655.9,577,1664.6,536.7z M1248.1,1084.3c0,76.8-62.2,139-139,139H891.3l55.8-262.5h216.1c46.9,0,84.9,38,84.9,84.9
			V1084.3z M1289.1,578.3c-13.6,65.5-72.5,111.4-139.2,108.5l-144.7,0.2l51.6-242.6c3-12.3,14-20.9,26.6-20.9h120.9
			C1297.2,423.5,1302.6,513,1289.1,578.3z"/>
	</g>
</g>
</svg>
